<?xml version="1.0" encoding="utf-8"?>
<!DOCTYPE svg PUBLIC "-//W3C//DTD SVG 1.1//EN" "http://www.w3.org/Graphics/SVG/1.1/DTD/svg11.dtd">
<svg version="1.1" id="图形" xmlns="http://www.w3.org/2000/svg" xmlns:xlink="http://www.w3.org/1999/xlink" x="0px" y="0px" width="1024px" height="1024px" viewBox="0 0 1024 1024" enable-background="new 0 0 1024 1024" xml:space="preserve">
  <path fill="#ffffff" d="M832-212 192-212c-106.048 0-192 85.952-192 192L0 620c0 106.048 85.952 192 192 192l640 0c106.048 0 192-85.952 192-192l0-640C1024-126.048 938.048-212 832-212zM896 620c0 35.328-28.608 64-64 64L192 684C156.608 684 128 655.328 128 620l0-640c0-35.392 28.608-64 64-64l640 0c35.392 0 64 28.608 64 64L896 620zM256 172l512 0 0-128L256 44 256 172zM256 364l512 0 0-128L256 236 256 364zM256 556l512 0 0-128L256 428 256 556z" transform="translate(0, 812) scale(1, -1)"/>
</svg>
